<svg xmlns="http://www.w3.org/2000/svg" width="150" height="80" viewBox="0 0 150 80">
  <path fill="none" stroke="#000000" stroke-width="2" stroke-linecap="round" stroke-linejoin="round" d="M15,45 C15,45 18,30 22,30 C26,30 27,38 27,42 C27,46 27,50 27,50 M21,40 C21,40 35,35 38,40 C41,45 32,55 30,55 M43,25 C43,25 40,35 40,45 C40,55 42,58 45,58 C48,58 52,54 60,35 M65,28 C65,28 61,38 61,45 C61,52 63,55 67,55 C71,55 73,50 75,45 M80,30 C80,30 76,42 76,48 C76,54 80,58 83,58 C86,58 90,53 95,45 M100,28 C100,28 93,50 103,50 C108,48 115,40 119,30 M120,50 C120,50 123,45 127,40"/>
  <path fill="none" stroke="#000000" stroke-width="1" stroke-linecap="round" stroke-linejoin="round" d="M140,35 C140,35 135,60 129,35"/>
</svg>